<?xml version="1.0" encoding="iso-8859-1"?>
<!-- Uploaded to: SVG Repo, www.svgrepo.com, Generator: SVG Repo Mixer Tools -->
<svg version="1.1" id="Layer_1" xmlns="http://www.w3.org/2000/svg" xmlns:xlink="http://www.w3.org/1999/xlink" 
	 viewBox="0 0 512 512" xml:space="preserve">
<rect x="309.224" y="37.725" style="fill:#333E48;" width="27.493" height="72.763"/>
<rect x="309.224" y="37.725" style="opacity:0.2;enable-background:new    ;" width="9.999" height="72.763"/>
<rect x="225.313" y="37.725" style="fill:#333E48;" width="27.493" height="72.763"/>
<rect x="225.313" y="37.725" style="opacity:0.2;enable-background:new    ;" width="9.999" height="72.763"/>
<path style="fill:#7D868C;" d="M349.604,0H212.429c-10.418,0-18.863,8.445-18.863,18.863l0,0c0,10.417,8.445,18.863,18.863,18.863
	h137.175c10.417,0,18.863-8.445,18.863-18.863l0,0C368.466,8.445,360.021,0,349.604,0z"/>
<path style="opacity:0.2;enable-background:new    ;" d="M357.754,28.094H220.579c-10.418,0-18.863-8.445-18.863-18.863
	c0-2.346,0.448-4.583,1.231-6.656c-5.605,3.27-9.381,9.331-9.381,16.289c0,10.417,8.445,18.863,18.863,18.863h137.175
	c8.071,0,14.938-5.078,17.631-12.206C364.447,27.146,361.215,28.094,357.754,28.094z"/>
<path style="fill:#333E48;" d="M123.317,304.839L123.317,304.839c-7.153,0-13.876-2.785-18.934-7.843
	c-10.439-10.439-10.439-27.427,0-37.866c9.235-9.233,33.377-19.005,45.126-7.259c11.744,11.745,1.975,35.89-7.257,45.125l0,0l0,0
	C137.194,302.053,130.469,304.839,123.317,304.839z M135.273,263.081c-4.635,0-14.137,2.871-19.103,7.836
	c-3.94,3.94-3.94,10.35,0,14.29c1.908,1.908,4.446,2.96,7.145,2.96c2.7,0,5.237-1.051,7.145-2.96l0,0
	c6.238-6.237,9.171-19.635,7.257-21.549C137.329,263.27,136.461,263.081,135.273,263.081z"/>
<path style="fill:#FF6361;" d="M387.646,110.494h-213.26c-15.354,0-27.8,12.447-27.8,27.8v306.576c0,15.354,12.447,27.8,27.8,27.8
	h213.26c15.354,0,27.8-12.447,27.8-27.8V138.294C415.446,122.94,403,110.494,387.646,110.494z"/>
<ellipse style="fill:#C3C6C8;" cx="281.016" cy="210.921" rx="55.703" ry="31.923"/>
<path style="fill:#333E48;" d="M302.27,219.256h-42.508c-4.605,0-8.335-3.732-8.335-8.335c0-4.603,3.731-8.335,8.335-8.335h42.508
	c4.605,0,8.335,3.732,8.335,8.335C310.605,215.524,306.874,219.256,302.27,219.256z"/>
<g style="opacity:0.2;">
	<path d="M345.414,304.839H216.618c-4.605,0-8.335-3.732-8.335-8.335c0-4.603,3.731-8.335,8.335-8.335h128.796
		c4.605,0,8.335,3.732,8.335,8.335C353.749,301.107,350.017,304.839,345.414,304.839z"/>
	<path d="M345.414,350.37H216.618c-4.605,0-8.335-3.732-8.335-8.335s3.731-8.335,8.335-8.335h128.796
		c4.605,0,8.335,3.732,8.335,8.335S350.017,350.37,345.414,350.37z"/>
	<path d="M345.414,395.901H216.618c-4.605,0-8.335-3.732-8.335-8.335s3.731-8.335,8.335-8.335h128.796
		c4.605,0,8.335,3.732,8.335,8.335S350.017,395.901,345.414,395.901z"/>
</g>
<g>
	<path style="fill:#C3C6C8;" d="M146.585,430.5v14.37c0,15.354,12.447,27.8,27.8,27.8h14.693
		C188.899,449.352,169.947,430.5,146.585,430.5z"/>
	<path style="fill:#C3C6C8;" d="M415.446,430.5v14.37c0,15.354-12.447,27.8-27.8,27.8h-14.693
		C373.132,449.352,392.085,430.5,415.446,430.5z"/>
</g>
<g>
	<path style="fill:#333E48;" d="M233.733,472.671h-44.655v28.151c0,6.174,5.005,11.178,11.178,11.178h22.298
		c6.174,0,11.178-5.005,11.178-11.178V472.671z"/>
	<path style="fill:#333E48;" d="M328.292,472.671h44.656v28.151c0,6.174-5.005,11.178-11.18,11.178H339.47
		c-6.174,0-11.178-5.005-11.178-11.178V472.671z"/>
</g>
<path style="opacity:0.2;enable-background:new    ;" d="M405.566,458.443h-213.26c-15.354,0-27.8-12.447-27.8-27.8V124.066
	c0-4.591,1.119-8.918,3.091-12.734c-12.071,3.031-21.011,13.951-21.011,26.961v306.576c0,15.354,12.447,27.8,27.8,27.8h213.26
	c10.763,0,20.091-6.12,24.711-15.067C410.183,458.151,407.909,458.443,405.566,458.443z"/>
</svg>